<?xml version="1.0" encoding="utf-8"?>
<!-- Generator: Adobe Illustrator 26.0.3, SVG Export Plug-In . SVG Version: 6.00 Build 0)  -->
<svg version="1.0" id="katman_1" xmlns="http://www.w3.org/2000/svg" xmlns:xlink="http://www.w3.org/1999/xlink" x="0px" y="0px"
	 viewBox="0 0 600 450" style="enable-background:new 0 0 600 450;" xml:space="preserve">
<style type="text/css">
	.st0{fill-rule:evenodd;clip-rule:evenodd;fill:#E4042C;}
</style>
<path class="st0" d="M299.9,380.3c-85.5-0.1-154.8-69.5-154.7-155.1c0.1-85.6,69.6-154.8,155.1-154.7
	C385.9,70.6,455.1,140,455,225.6C454.9,311.1,385.5,380.4,299.9,380.3z M410.1,316c4.4,0,8.3-3.4,8.3-8.5c0-5.1-3.8-8.5-8.3-8.5
	c-4.5,0-8.3,3.4-8.3,8.5C401.7,312.3,405.2,316,410.1,316z M254.4,182.9c-1.5-37.5-27.4-54.4-59.8-54.7c-3.6,0-8.5,0.1-12.1,0.6
	l-0.3,193.1l15.6,0l0.1-81.1l80.1,91.7l16.3,0l-73-87.9C245.9,232.2,255.5,210.4,254.4,182.9z M281.8,193.6
	c-3.5,0.5-6.7,2.5-9.1,5.3l0.2-123.3c-4.3,0.8-8.6,1.8-12.8,2.9l-0.3,210.4l12.8,0l0.1-75c0,0,0-5.9,4.6-5.9c4.8,0,4.7,5.9,4.7,5.9
	l-0.1,75l12.8,0l0.1-75l0-7.6C294.9,198.3,289,192.6,281.8,193.6z M317.7,193.6c-10,0-18.2,13-18.2,48.1c0,35.1,8.1,48.2,18.1,48.2
	c8.4,0,15.5-9.2,17.6-33.1l-12.3-1.6c-0.5,14.5-1.9,20.2-5.3,20.2c-4,0-5.2-8-5.3-29.4l10.7,0l12.8,0l0-4.4
	C335.8,206.6,327.7,193.6,317.7,193.6z M358.9,193.6c-10,0-18.2,13-18.2,48.1c0,35.1,8.1,48.2,18.1,48.2c8.4,0,15.5-9.2,17.6-33.1
	l-12.3-1.6c-0.5,14.5-1.9,20.2-5.3,20.2c-4,0-5.2-8-5.3-29.4l10.7,0l12.8,0l0-4.4C377,206.7,368.9,193.6,358.9,193.6z M427,193.7
	c-4.6,0-8.7,2.2-10.7,5.5c-2.1-3.3-6.1-5.5-10.7-5.6c-4.6,0-8.6,1.7-10.7,5l0-0.1c-1-5.1-5.9-5.3-11.8-4.3c-0.3,0.1-0.7,0.1-1,0.2
	l-0.1,94.6l12.8,0l0.1-75c0,0,0-5.9,4.6-5.9c4.8,0,4.8,5.9,4.8,5.9l-0.1,75l12.8,0l0.1-75c0,0,0-5.9,4.6-5.9c4.8,0,4.8,5.9,4.8,5.9
	l-0.1,75l12.8,0l0.1-75l0-7.6l0-2.2C439.1,198.5,433.7,193.7,427,193.7z M358.9,208.1c3.9,0,5.2,7.5,5.4,27l-10.7,0
	C353.7,215.5,355,208.1,358.9,208.1z M317.7,208c3.9,0,5.2,7.5,5.4,27l-10.7,0C312.6,215.5,313.8,208,317.7,208z M201.3,234.4
	c-1,0.1-2.6-0.1-3.4-0.1l0.1-89.9c1.5,0,3-0.2,4.5-0.2c24.8,0.2,37.9,19,37.9,42.5C240.4,210.7,226.5,232.3,201.3,234.4z
	 M410.1,300.5c3.6,0,6.5,2.9,6.5,7c0,4.1-2.9,7-6.5,7c-4,0-6.5-3.2-6.5-7C403.6,303.4,406.4,300.5,410.1,300.5z M408.4,312.4l0-4
	l1.4,0l2.4,4l1.7,0l-2.6-4.1c1.4-0.2,2.4-0.9,2.4-2.6c0-1.9-1.1-2.7-3.4-2.7l-3.6,0l0,9.4L408.4,312.4z M412.3,305.6
	c0,1.4-1,1.5-2.2,1.5l-1.7,0v-2.7h1.9C411.2,304.3,412.3,304.4,412.3,305.6z"/>
</svg>
